<svg width="138" height="98" viewBox="0 0 138 98" fill="none" xmlns="http://www.w3.org/2000/svg">
<path d="M5.376 47V17.048H0.48V11.72H15.456V17.048H10.56V47H5.376ZM20.7229 47.336C18.7869 47.336 17.2669 46.688 16.1629 45.392C15.0589 44.08 14.5069 42.424 14.5069 40.424V27.272C14.5069 25.272 15.0589 23.624 16.1629 22.328C17.2669 21.016 18.7869 20.36 20.7229 20.36C22.6429 20.36 24.1549 21.016 25.2589 22.328C26.3789 23.624 26.9389 25.272 26.9389 27.272V40.424C26.9389 42.424 26.3789 44.08 25.2589 45.392C24.1549 46.688 22.6429 47.336 20.7229 47.336ZM20.7229 43.112C21.3469 43.112 21.7789 42.864 22.0189 42.368C22.2589 41.856 22.3789 41.208 22.3789 40.424V27.272C22.3789 26.472 22.2589 25.824 22.0189 25.328C21.7789 24.832 21.3469 24.584 20.7229 24.584C20.0989 24.584 19.6669 24.832 19.4269 25.328C19.1869 25.824 19.0669 26.472 19.0669 27.272V40.424C19.0669 41.224 19.1869 41.872 19.4269 42.368C19.6669 42.864 20.0989 43.112 20.7229 43.112ZM29.0906 47V11.72H33.9386V27.608V28.472H34.1786L34.4666 27.608L36.8186 20.744H41.4266L37.6826 29.288L42.0986 47H37.2026L34.8026 36.392L34.7546 36.008H34.7066L33.9386 37.928V47H29.0906ZM49.4344 47.384C47.4984 47.384 45.9704 46.72 44.8504 45.392C43.7464 44.048 43.1944 42.408 43.1944 40.472V27.272C43.1944 25.224 43.7464 23.56 44.8504 22.28C45.9544 21 47.4984 20.36 49.4824 20.36C50.7784 20.36 51.8904 20.656 52.8184 21.248C53.7624 21.84 54.4824 22.648 54.9784 23.672C55.4744 24.68 55.7224 25.832 55.7224 27.128V34.76H47.7064V40.472C47.7064 41.128 47.8504 41.736 48.1384 42.296C48.4424 42.84 48.8904 43.112 49.4824 43.112C50.1064 43.112 50.5464 42.856 50.8024 42.344C51.0744 41.832 51.2104 41.208 51.2104 40.472V37.592H55.7224V40.616C55.7224 42.648 55.1704 44.288 54.0664 45.536C52.9784 46.768 51.4344 47.384 49.4344 47.384ZM47.7064 30.968H51.2104V27.272C51.2104 26.552 51.0824 25.928 50.8264 25.4C50.5864 24.856 50.1384 24.584 49.4824 24.584C48.8744 24.584 48.4264 24.864 48.1384 25.424C47.8504 25.968 47.7064 26.584 47.7064 27.272V30.968ZM57.7781 47V20.744H62.6261V22.952C63.2021 22.392 63.8501 21.824 64.5701 21.248C65.2901 20.656 65.9541 20.36 66.5621 20.36C67.3621 20.36 68.0341 20.616 68.5781 21.128C69.1221 21.64 69.5301 22.288 69.8021 23.072C70.0741 23.856 70.2101 24.664 70.2101 25.496V47H65.3621V26.456C65.3621 25.944 65.2741 25.584 65.0981 25.376C64.9221 25.168 64.6261 25.064 64.2101 25.064C63.8581 25.064 63.5541 25.192 63.2981 25.448C63.0581 25.688 62.8341 25.976 62.6261 26.312V47H57.7781Z" fill="white"/>
<path d="M66.592 87.384C65.12 87.384 63.864 87.056 62.824 86.4C61.8 85.728 61.016 84.816 60.472 83.664C59.944 82.512 59.68 81.208 59.68 79.752V58.968C59.68 57.528 59.952 56.232 60.496 55.08C61.056 53.928 61.856 53.016 62.896 52.344C63.936 51.672 65.168 51.336 66.592 51.336C67.664 51.336 68.624 51.536 69.472 51.936C70.32 52.336 71.04 52.888 71.632 53.592C72.24 54.28 72.704 55.088 73.024 56.016C73.344 56.928 73.504 57.912 73.504 58.968V63.816H68.656V58.968C68.656 58.232 68.504 57.616 68.2 57.12C67.896 56.624 67.392 56.376 66.688 56.376C66.048 56.376 65.584 56.632 65.296 57.144C65.008 57.656 64.864 58.264 64.864 58.968V79.752C64.864 80.456 65.016 81.064 65.32 81.576C65.64 82.088 66.096 82.344 66.688 82.344C67.408 82.344 67.912 82.096 68.2 81.6C68.504 81.104 68.656 80.488 68.656 79.752V74.904H73.504V79.752C73.504 81.192 73.224 82.488 72.664 83.64C72.104 84.792 71.304 85.704 70.264 86.376C69.24 87.048 68.016 87.384 66.592 87.384ZM80.0511 87.384C79.2511 87.384 78.5791 87.128 78.0351 86.616C77.4911 86.104 77.0831 85.456 76.8111 84.672C76.5391 83.872 76.4031 83.064 76.4031 82.248V60.744H81.2511V81.288C81.2511 81.784 81.3391 82.144 81.5151 82.368C81.7071 82.576 82.0031 82.68 82.4031 82.68C82.7551 82.68 83.0511 82.56 83.2911 82.32C83.5471 82.064 83.7791 81.768 83.9871 81.432V60.744H88.8351V87H83.9871V84.792C83.4111 85.336 82.7631 85.904 82.0431 86.496C81.3231 87.088 80.6591 87.384 80.0511 87.384ZM98.0373 87.384C96.5173 87.384 95.3573 87.048 94.5573 86.376C93.7573 85.704 93.2053 84.744 92.9013 83.496C92.6133 82.248 92.4693 80.76 92.4693 79.032V65.112H90.0213V60.744H92.4693V54.264H97.3173V60.744H100.653V65.112H97.3173V79.728C97.3173 80.752 97.4693 81.512 97.7733 82.008C98.0773 82.488 98.5733 82.728 99.2613 82.728C99.5653 82.728 99.8293 82.704 100.053 82.656C100.293 82.608 100.485 82.552 100.629 82.488V86.928C100.309 87.056 99.9573 87.16 99.5733 87.24C99.2053 87.336 98.6933 87.384 98.0373 87.384ZM108.865 87.384C107.345 87.384 106.185 87.048 105.385 86.376C104.585 85.704 104.033 84.744 103.729 83.496C103.441 82.248 103.297 80.76 103.297 79.032V65.112H100.849V60.744H103.297V54.264H108.145V60.744H111.481V65.112H108.145V79.728C108.145 80.752 108.297 81.512 108.601 82.008C108.905 82.488 109.401 82.728 110.089 82.728C110.393 82.728 110.657 82.704 110.881 82.656C111.121 82.608 111.313 82.552 111.457 82.488V86.928C111.137 87.056 110.785 87.16 110.401 87.24C110.033 87.336 109.521 87.384 108.865 87.384ZM118.919 87.384C116.983 87.384 115.455 86.72 114.335 85.392C113.231 84.048 112.679 82.408 112.679 80.472V67.272C112.679 65.224 113.231 63.56 114.335 62.28C115.439 61 116.983 60.36 118.967 60.36C120.263 60.36 121.375 60.656 122.303 61.248C123.247 61.84 123.967 62.648 124.463 63.672C124.959 64.68 125.207 65.832 125.207 67.128V74.76H117.191V80.472C117.191 81.128 117.335 81.736 117.623 82.296C117.927 82.84 118.375 83.112 118.967 83.112C119.591 83.112 120.031 82.856 120.287 82.344C120.559 81.832 120.695 81.208 120.695 80.472V77.592H125.207V80.616C125.207 82.648 124.655 84.288 123.551 85.536C122.463 86.768 120.919 87.384 118.919 87.384ZM117.191 70.968H120.695V67.272C120.695 66.552 120.567 65.928 120.311 65.4C120.071 64.856 119.623 64.584 118.967 64.584C118.359 64.584 117.911 64.864 117.623 65.424C117.335 65.968 117.191 66.584 117.191 67.272V70.968ZM127.263 87V60.744H132.111V63.672C132.207 63.032 132.503 62.464 132.999 61.968C133.495 61.472 134.095 61.08 134.799 60.792C135.519 60.504 136.239 60.36 136.959 60.36V65.736C136.751 65.656 136.527 65.608 136.287 65.592C136.063 65.56 135.839 65.544 135.615 65.544C134.559 65.544 133.711 65.832 133.071 66.408C132.431 66.984 132.111 67.768 132.111 68.76V87H127.263Z" fill="#01963C"/>
<g clip-path="url(#clip0_19_9)">
<path d="M89.7668 23.8068C89.5417 22.1687 88.9695 20.8031 87.5897 20.5352L86.2389 31.7074L86.0888 33.0389C86.0888 33.0389 85.905 35.3107 85.9504 36.2943C85.9958 37.2779 86.0886 38.3435 86.1081 39.1261C86.1252 39.8129 86.0411 39.9886 85.7973 39.9306C85.763 39.9185 85.7284 39.9072 85.6936 39.8965L85.6859 39.8935C85.605 39.8605 85.5039 39.8361 85.393 39.8208C84.8237 39.7122 84.2385 39.7905 83.7258 40.0865C82.4722 40.8103 82.1273 42.5603 82.9558 43.9952C83.7842 45.4301 85.4722 46.0065 86.7258 45.2826C87.7522 44.6901 88.1689 43.41 87.832 42.178L87.8328 42.1798C87.8328 42.1798 87.4028 40.1828 87.4834 38.5125C87.564 36.8422 88.4889 35.6045 88.4889 35.6045L89.0361 33.5565C89.0361 33.5565 89.9919 25.445 89.7668 23.8068ZM85.9758 43.9836C85.35 44.345 84.5061 44.0553 84.0925 43.3389C83.6789 42.6225 83.85 41.7469 84.4758 41.3855C85.1018 41.0241 85.9456 41.3139 86.3592 42.0302C86.7728 42.7466 86.6018 43.6222 85.9758 43.9836ZM87.75 34.299C87.3913 34.5061 86.9326 34.3833 86.7255 34.0245C86.5184 33.6658 86.6413 33.2071 87 33C87.3587 32.7929 87.8174 32.9158 88.0245 33.2745C88.2316 33.6333 88.1087 34.0919 87.75 34.299Z" fill="white"/>
<path d="M85.2391 34.5176C85.2668 34.0042 85.3008 33.4911 85.3413 32.9785L85.3422 32.9667L85.3435 32.9549L85.4936 31.6234L85.4939 31.6204L85.4943 31.6174L85.5218 31.3894L75.9001 27.2842C75.4422 28.6131 76.3387 29.7914 77.6448 30.8055C78.6212 31.5635 83.0599 33.5585 85.2391 34.5176Z" fill="white"/>
<path d="M94.7639 33.7137C94.2513 34.0096 93.8909 34.4773 93.7002 35.0246C93.658 35.1283 93.6286 35.2281 93.6167 35.3146L93.6155 35.3228C93.6074 35.3583 93.5999 35.3939 93.5932 35.4296C93.5216 35.6698 93.3273 35.6547 92.7411 35.2965C92.0731 34.8883 91.1966 34.2752 90.3675 33.7441C90.2155 33.6467 90.022 33.5343 89.8076 33.4158C89.7987 33.492 89.7898 33.5682 89.7808 33.6444L89.7746 33.698L89.7607 33.7502L89.2694 35.5888C89.8536 35.6225 90.695 35.755 91.5221 36.1807C93.009 36.9461 94.5233 38.317 94.5233 38.317L94.5222 38.3154C95.4207 39.2232 96.7376 39.5024 97.7639 38.9098C99.0176 38.186 99.3727 36.4301 98.5442 34.9952C97.7158 33.5603 96.0176 32.9898 94.7639 33.7137ZM97.0139 37.6108C96.388 37.9722 95.5442 37.6824 95.1306 36.9661C94.717 36.2497 94.888 35.3741 95.5139 35.0127C96.1398 34.6513 96.9837 34.941 97.3973 35.6574C97.8109 36.3738 97.6398 37.2494 97.0139 37.6108Z" fill="white"/>
</g>
<defs>
<clipPath id="clip0_19_9">
<rect width="24" height="24" fill="white" transform="translate(70.6077 28.6077) rotate(-30)"/>
</clipPath>
</defs>
</svg>
